<?xml version="1.0" encoding="utf-8"?>
<svg viewBox="0 0 500 500" xmlns="http://www.w3.org/2000/svg">
  <path style="stroke: rgb(83, 40, 157); stroke-width: 9px; paint-order: fill; fill-rule: evenodd; fill: rgb(95, 3, 148);" d="M 201.577 243.177 C 172.602 189.398 139.009 202.98 114.02 230.785 C 89.032 258.591 72.65 300.619 78.099 303.73 L 253.359 303.948 L 428.618 304.166 C 433.646 315.607 424.616 278.427 408.182 254.155 C 391.749 229.882 367.281 200.777 341.431 228.366 C 340.743 204.806 307.776 177.377 273.981 171.404 C 240.188 165.431 205.568 180.914 201.577 243.177 Z" transform="matrix(0.9999999999999999, 0, 0, 0.9999999999999999, 0, 0)"/>
  <path style="stroke-width: 7px; paint-order: fill; stroke: rgb(24, 32, 213); fill: rgb(77, 136, 202);" d="M 237.426 363.412 C 237.426 363.412 237.426 358.619 237.426 358.184 C 237.426 353.979 236.903 347.451 238.754 343.808 C 242.941 335.566 246.72 323.794 246.72 314.186 C 238.171 314.186 229.541 314.621 221.051 314.621 C 216.349 314.621 222.821 297.003 222.821 292.84 C 222.821 284.43 222.821 277.515 222.821 268.88 C 222.821 265.469 223.615 260.469 221.936 257.99 C 220.887 256.441 222.402 252.809 221.493 251.02 C 220.376 248.82 220.645 245.499 220.166 243.614 C 219.781 242.097 217.273 240.364 218.396 239.258 C 218.986 238.677 220.166 237.515 220.166 237.515 C 226.597 237.515 236.445 236.549 240.082 240.129 C 241.621 241.643 246.563 240.409 248.048 241.871 C 250.242 244.03 257.215 241.745 259.555 244.05 C 263.296 247.732 274.393 240.565 276.816 240.565 C 278.582 243.172 279.7 250.359 277.258 252.762 C 275.692 254.303 274.773 262.697 272.832 263.653 C 270.068 265.013 270.92 271.198 268.849 273.237 C 263.15 278.845 262.929 289.518 256.9 295.454 C 260.204 298.055 270.85 297.045 274.603 294.582 C 276.534 293.315 281.629 295.045 283.454 294.147 C 286.506 292.644 291.667 295.646 294.076 293.275 C 299.893 300.146 290.701 308.469 288.766 314.186 C 284.148 327.817 266.27 345.078 252.917 351.65 C 248.859 353.646 244.504 359.059 242.295 361.233 C 242.032 361.491 236.984 365.641 236.984 365.154 C 236.984 364.555 238.035 363.412 237.426 363.412 Z" transform="matrix(0.9999999999999999, 0, 0, 0.9999999999999999, 0, 0)"/>
</svg>
